<svg width="166" height="30" viewBox="0 0 166 30" fill="none" xmlns="http://www.w3.org/2000/svg">
<path d="M5.05055 29.132C3.58655 29.132 2.48255 28.892 1.73855 28.412C0.99455 27.932 0.61055 27.14 0.58655 26.036C0.58655 25.796 0.71855 25.676 0.98255 25.676C1.19855 25.676 1.52255 25.736 1.95455 25.856C2.41055 25.952 3.26255 26 4.51055 26C6.62255 26 8.56655 25.784 10.3426 25.352C12.1186 24.896 13.6546 24.296 14.9506 23.552C16.2706 22.784 17.2906 21.932 18.0106 20.996C18.7306 20.036 19.0906 19.04 19.0906 18.008C19.0906 17.072 18.8026 16.328 18.2266 15.776C17.6746 15.2 16.9306 14.768 15.9946 14.48C15.0826 14.168 14.0746 13.964 12.9706 13.868C11.8906 13.772 10.8226 13.724 9.76655 13.724C9.31055 13.724 8.85455 13.736 8.39855 13.76C7.94255 13.76 7.51055 13.76 7.10255 13.76C6.57455 15.584 6.05855 17.468 5.55455 19.412C5.05055 21.356 4.52255 23.264 3.97055 25.136C3.25055 25.136 2.62655 24.944 2.09855 24.56C1.57055 24.176 1.30655 23.708 1.30655 23.156C1.30655 22.94 1.34255 22.664 1.41455 22.328C1.51055 21.968 1.64255 21.548 1.81055 21.068C1.95455 20.612 2.19455 19.856 2.53055 18.8C2.89055 17.744 3.31055 16.496 3.79055 15.056C4.27055 13.616 4.79855 12.104 5.37455 10.52C5.97455 8.912 6.58655 7.34 7.21055 5.804C7.85855 4.268 8.49455 2.888 9.11855 1.664C8.15855 1.88 7.36655 2.132 6.74255 2.42C6.11855 2.708 5.62655 2.96 5.26655 3.176C4.90655 3.392 4.63055 3.5 4.43855 3.5C4.29455 3.5 4.10255 3.416 3.86255 3.248C3.64655 3.08 3.44255 2.888 3.25055 2.672C3.08255 2.456 2.99855 2.264 2.99855 2.096C4.29455 1.568 5.63855 1.1 7.03055 0.692C8.42255 0.283999 10.1026 0.079999 12.0706 0.079999C12.9346 0.079999 13.8826 0.151999 14.9146 0.295998C15.9466 0.415998 16.9306 0.679998 17.8666 1.088C18.8026 1.472 19.5706 2.06 20.1706 2.852C20.7946 3.62 21.1065 4.652 21.1065 5.948C21.1065 6.98 20.8786 7.88 20.4226 8.648C19.9906 9.392 19.4026 10.04 18.6586 10.592C17.9146 11.12 17.0986 11.564 16.2106 11.924C15.3226 12.26 14.4466 12.536 13.5826 12.752C15.0706 12.944 16.3066 13.256 17.2905 13.688C18.2986 14.096 19.0906 14.576 19.6666 15.128C20.2666 15.68 20.6866 16.256 20.9266 16.856C21.1906 17.432 21.3226 17.996 21.3226 18.548C21.3226 19.964 20.9506 21.236 20.2066 22.364C19.4626 23.492 18.4786 24.476 17.2546 25.316C16.0546 26.156 14.7226 26.852 13.2586 27.404C11.8186 27.98 10.3786 28.412 8.93855 28.7C7.49855 28.988 6.20255 29.132 5.05055 29.132ZM7.46255 12.392C8.80655 12.344 10.1266 12.188 11.4226 11.924C12.7186 11.66 13.8826 11.276 14.9146 10.772C15.9706 10.244 16.8106 9.572 17.4346 8.756C18.0586 7.916 18.3706 6.884 18.3706 5.66C18.3706 4.508 18.0586 3.62 17.4346 2.996C16.8106 2.372 15.9946 1.94 14.9866 1.7C13.9786 1.46 12.8986 1.34 11.7466 1.34C11.7226 1.34 11.6986 1.34 11.6746 1.34C11.6506 1.34 11.6266 1.34 11.6026 1.34C10.7866 2.948 10.0426 4.7 9.37055 6.596C8.69855 8.468 8.06255 10.4 7.46255 12.392ZM23.2086 27.152C22.1046 27.152 21.2886 26.816 20.7606 26.144C20.2326 25.496 19.9686 24.692 19.9686 23.732C19.9686 22.484 20.1846 21.32 20.6166 20.24C21.0726 19.16 21.6366 18.188 22.3086 17.324C23.0046 16.436 23.7486 15.68 24.5406 15.056C25.3326 14.432 26.0766 13.952 26.7726 13.616C27.4926 13.28 28.0806 13.112 28.5366 13.112C28.6566 13.112 28.8246 13.136 29.0406 13.184C29.2566 13.232 29.4126 13.352 29.5086 13.544C29.5806 13.496 29.6526 13.46 29.7246 13.436C29.8206 13.412 29.9166 13.4 30.0126 13.4C30.6846 13.4 31.1166 13.592 31.3086 13.976C31.5246 14.36 31.6326 14.78 31.6326 15.236C31.6326 15.644 31.5126 16.112 31.2726 16.64C31.0566 17.168 30.8286 17.756 30.5886 18.404C30.3726 19.028 30.2646 19.748 30.2646 20.564C30.2646 20.996 30.3846 21.332 30.6246 21.572C30.8886 21.788 31.1886 21.896 31.5246 21.896C32.4606 21.896 33.2286 21.692 33.8286 21.284C34.4286 20.852 34.9206 20.288 35.3046 19.592C35.6886 18.896 36.0126 18.14 36.2766 17.324C36.5406 16.484 36.7926 15.656 37.0326 14.84C36.8166 14.576 36.7086 14.276 36.7086 13.94C36.7086 13.412 36.8166 12.956 37.0326 12.572C37.2486 12.164 37.4886 11.852 37.7526 11.636C38.0406 11.396 38.2686 11.276 38.4366 11.276C38.8206 11.276 39.0486 11.42 39.1206 11.708C39.1926 11.996 39.2286 12.224 39.2286 12.392C39.2286 12.512 39.1566 12.728 39.0126 13.04C38.8926 13.352 38.8326 13.568 38.8326 13.688C38.8326 13.928 39.0246 14.18 39.4086 14.444C39.8166 14.684 40.2726 14.972 40.7766 15.308C41.2806 15.644 41.7246 16.076 42.1086 16.604C42.5166 17.108 42.7206 17.744 42.7206 18.512C42.7206 19.232 42.5766 19.952 42.2886 20.672C42.0006 21.392 41.7126 22.064 41.4246 22.688C41.1366 23.312 40.9926 23.852 40.9926 24.308C40.9926 24.668 41.0766 24.908 41.2446 25.028C41.4366 25.124 41.6526 25.172 41.8926 25.172C42.4446 25.172 43.0206 25.004 43.6206 24.668C44.2446 24.308 44.8446 23.852 45.4206 23.3C45.9966 22.748 46.5126 22.172 46.9686 21.572C47.4246 20.948 47.7606 20.384 47.9766 19.88L48.6966 20.384C48.2166 21.416 47.5806 22.436 46.7886 23.444C45.9966 24.452 45.0966 25.292 44.0886 25.964C43.1046 26.636 42.0726 26.972 40.9926 26.972C40.1046 26.972 39.3726 26.732 38.7966 26.252C38.2446 25.772 37.9686 25.16 37.9686 24.416C37.9686 23.72 38.1246 22.988 38.4366 22.22C38.7486 21.452 39.0606 20.708 39.3726 19.988C39.6846 19.268 39.8406 18.62 39.8406 18.044C39.8406 17.42 39.6366 16.916 39.2286 16.532C38.8206 16.124 38.3886 15.8 37.9326 15.56C37.6446 16.424 37.3206 17.312 36.9606 18.224C36.6246 19.136 36.2046 19.976 35.7006 20.744C35.1966 21.488 34.5606 22.1 33.7926 22.58C33.0246 23.036 32.0646 23.264 30.9126 23.264C30.6006 23.264 30.2406 23.216 29.8326 23.12C29.4486 23.024 29.1246 22.928 28.8606 22.832C28.2126 24.104 27.3606 25.148 26.3046 25.964C25.2726 26.756 24.2406 27.152 23.2086 27.152ZM23.8926 25.352C24.2046 25.352 24.5886 25.196 25.0446 24.884C25.5246 24.572 25.9926 24.164 26.4486 23.66C26.9286 23.132 27.3006 22.58 27.5646 22.004C27.0606 21.332 26.8086 20.324 26.8086 18.98C26.8086 18.692 26.8446 18.308 26.9166 17.828C27.0126 17.348 27.1326 16.856 27.2766 16.352C27.4446 15.824 27.6366 15.38 27.8526 15.02C27.3726 15.476 26.8806 15.992 26.3766 16.568C25.8966 17.12 25.4406 17.708 25.0086 18.332C24.5766 18.932 24.1926 19.544 23.8566 20.168C23.5206 20.768 23.2566 21.368 23.0646 21.968C22.8726 22.544 22.7766 23.096 22.7766 23.624C22.7766 24.272 22.8726 24.728 23.0646 24.992C23.2806 25.232 23.5566 25.352 23.8926 25.352ZM47.08 27.692C46.288 27.692 45.604 27.428 45.028 26.9C44.428 26.372 44.128 25.58 44.128 24.524C44.128 23.684 44.32 22.772 44.704 21.788C45.088 20.804 45.616 19.832 46.288 18.872C46.96 17.912 47.728 17.048 48.592 16.28C49.456 15.488 50.38 14.852 51.364 14.372C52.348 13.892 53.332 13.652 54.316 13.652C55.348 13.652 56.224 13.916 56.944 14.444C57.664 14.972 58.024 15.668 58.024 16.532C58.024 17.18 57.796 17.648 57.34 17.936C56.884 18.224 56.344 18.308 55.72 18.188C55.768 17.972 55.804 17.756 55.828 17.54C55.876 17.324 55.9 17.096 55.9 16.856C55.9 16.376 55.804 15.944 55.612 15.56C55.42 15.176 55.012 14.984 54.388 14.984C53.716 14.984 53.032 15.212 52.336 15.668C51.64 16.124 50.968 16.724 50.32 17.468C49.696 18.188 49.132 18.992 48.628 19.88C48.124 20.744 47.728 21.596 47.44 22.436C47.152 23.276 47.008 24.032 47.008 24.704C47.008 25.472 47.284 25.856 47.836 25.856C48.388 25.856 49 25.592 49.672 25.064C50.344 24.512 51.016 23.828 51.688 23.012C52.384 22.196 53.044 21.368 53.668 20.528C54.292 19.664 54.832 18.932 55.288 18.332C55.36 18.212 55.456 18.152 55.576 18.152C55.672 18.176 55.852 18.236 56.116 18.332C56.404 18.404 56.668 18.524 56.908 18.692C57.148 18.86 57.268 19.076 57.268 19.34C57.268 19.58 57.16 19.892 56.944 20.276C56.752 20.636 56.512 21.044 56.224 21.5C55.96 21.932 55.72 22.376 55.504 22.832C55.312 23.264 55.216 23.684 55.216 24.092C55.216 24.404 55.3 24.704 55.468 24.992C55.636 25.256 55.912 25.388 56.296 25.388C56.872 25.388 57.676 24.968 58.708 24.128C59.764 23.264 60.832 21.812 61.912 19.772L62.596 20.456C62.02 21.752 61.324 22.904 60.508 23.912C59.716 24.896 58.876 25.664 57.988 26.216C57.1 26.792 56.2 27.08 55.288 27.08C54.304 27.08 53.572 26.768 53.092 26.144C52.612 25.52 52.348 24.848 52.3 24.128C52.3 24.08 52.3 24.044 52.3 24.02C52.3 23.996 52.3 23.972 52.3 23.948C51.34 25.1 50.452 26.012 49.636 26.684C48.844 27.356 47.992 27.692 47.08 27.692ZM65.9116 29.132C66.0316 28.772 66.3796 27.944 66.9556 26.648C67.5556 25.376 68.3476 23.672 69.3316 21.536C70.3396 19.376 71.5276 16.82 72.8956 13.868C74.2636 10.916 75.7876 7.592 77.4676 3.896C77.5636 3.704 77.6356 3.5 77.6836 3.284C77.7556 3.068 77.7916 2.876 77.7916 2.708C77.7916 2.468 77.7196 2.276 77.5756 2.132C77.4316 1.988 77.1556 1.916 76.7476 1.916C75.7396 1.916 74.9116 2.228 74.2636 2.852C73.6396 3.452 73.1716 4.196 72.8596 5.084C72.5716 5.972 72.4276 6.848 72.4276 7.712C72.4276 7.928 72.4396 8.18 72.4636 8.468C72.4876 8.756 72.5236 9.08 72.5716 9.44C71.9956 9.44 71.5156 9.272 71.1316 8.936C70.7716 8.576 70.4956 8.144 70.3036 7.64C70.1116 7.112 70.0156 6.62 70.0156 6.164C70.0156 5.396 70.2316 4.652 70.6636 3.932C71.1196 3.212 71.7076 2.564 72.4276 1.988C73.1476 1.388 73.9396 0.919999 74.8036 0.583999C75.6916 0.247999 76.5676 0.079999 77.4316 0.079999C78.3196 0.079999 79.0756 0.331999 79.6996 0.835998C80.3236 1.316 80.8036 2.204 81.1396 3.5C81.4756 4.772 81.6436 6.608 81.6436 9.008C81.6436 10.568 81.5836 12.152 81.4636 13.76C81.3676 15.344 81.2596 16.832 81.1396 18.224C81.0196 19.616 80.9596 20.804 80.9596 21.788C81.4396 20.372 82.0276 18.872 82.7236 17.288C83.4436 15.68 84.2116 14.096 85.0276 12.536C85.8436 10.952 86.6476 9.464 87.4396 8.072C88.2316 6.68 88.9396 5.468 89.5636 4.436C90.2116 3.38 90.7036 2.6 91.0396 2.096C91.3756 1.568 91.6756 1.172 91.9396 0.907999C92.2036 0.644 92.5636 0.512 93.0196 0.512C93.3556 0.512 93.8836 0.644 94.6036 0.907999C94.3876 1.364 94.1356 2.096 93.8476 3.104C93.5596 4.088 93.2476 5.24 92.9116 6.56C92.5516 8 92.1916 9.584 91.8316 11.312C91.4716 13.016 91.1476 14.744 90.8596 16.496C90.5716 18.248 90.3316 19.916 90.1396 21.5C89.9716 23.06 89.8876 24.44 89.8876 25.64C89.8876 26.264 89.9116 26.756 89.9596 27.116C90.0316 27.476 90.1156 27.788 90.2116 28.052C90.3316 28.34 90.4636 28.7 90.6076 29.132C89.5756 29.132 88.7836 28.976 88.2316 28.664C87.7036 28.352 87.3436 27.848 87.1516 27.152C86.9836 26.48 86.8996 25.58 86.8996 24.452C86.8996 21.788 87.1996 18.992 87.7996 16.064C88.4236 13.112 89.1436 10.076 89.9596 6.956C89.2876 7.916 88.5916 9.056 87.8716 10.376C87.1516 11.696 86.4436 13.088 85.7476 14.552C85.0516 16.016 84.3916 17.468 83.7676 18.908C83.1436 20.324 82.5916 21.644 82.1116 22.868C81.6316 24.068 81.2596 25.076 80.9956 25.892C80.7796 25.964 80.6236 26.012 80.5276 26.036C80.4556 26.06 80.3596 26.072 80.2396 26.072C79.3996 26.072 78.8596 25.568 78.6196 24.56C78.4036 23.528 78.2956 22.124 78.2956 20.348C78.2956 19.412 78.3076 18.416 78.3316 17.36C78.3556 16.28 78.3916 15.188 78.4396 14.084C78.4876 12.956 78.5236 11.84 78.5476 10.736C78.5716 9.632 78.5836 8.576 78.5836 7.568C78.5836 7.208 78.5716 6.848 78.5476 6.488C78.5476 6.128 78.5476 5.78 78.5476 5.444C76.7236 9.692 75.1756 13.328 73.9036 16.352C72.6556 19.352 71.5876 21.8 70.6996 23.696C69.8116 25.568 68.9956 26.936 68.2516 27.8C67.5076 28.688 66.7276 29.132 65.9116 29.132ZM94.9515 27.692C94.1595 27.692 93.4755 27.428 92.8995 26.9C92.2995 26.372 91.9995 25.58 91.9995 24.524C91.9995 23.684 92.1915 22.772 92.5755 21.788C92.9595 20.804 93.4875 19.832 94.1595 18.872C94.8315 17.912 95.5995 17.048 96.4635 16.28C97.3275 15.488 98.2515 14.852 99.2355 14.372C100.22 13.892 101.204 13.652 102.188 13.652C103.22 13.652 104.096 13.916 104.816 14.444C105.536 14.972 105.896 15.668 105.896 16.532C105.896 17.18 105.668 17.648 105.212 17.936C104.756 18.224 104.216 18.308 103.592 18.188C103.64 17.972 103.676 17.756 103.7 17.54C103.748 17.324 103.772 17.096 103.772 16.856C103.772 16.376 103.676 15.944 103.484 15.56C103.292 15.176 102.884 14.984 102.26 14.984C101.588 14.984 100.904 15.212 100.208 15.668C99.5115 16.124 98.8395 16.724 98.1915 17.468C97.5675 18.188 97.0035 18.992 96.4995 19.88C95.9955 20.744 95.5995 21.596 95.3115 22.436C95.0235 23.276 94.8795 24.032 94.8795 24.704C94.8795 25.472 95.1555 25.856 95.7075 25.856C96.2595 25.856 96.8715 25.592 97.5435 25.064C98.2155 24.512 98.8875 23.828 99.5595 23.012C100.256 22.196 100.916 21.368 101.54 20.528C102.164 19.664 102.704 18.932 103.16 18.332C103.232 18.212 103.328 18.152 103.448 18.152C103.544 18.176 103.724 18.236 103.988 18.332C104.276 18.404 104.54 18.524 104.78 18.692C105.02 18.86 105.14 19.076 105.14 19.34C105.14 19.58 105.032 19.892 104.816 20.276C104.624 20.636 104.384 21.044 104.096 21.5C103.832 21.932 103.592 22.376 103.376 22.832C103.184 23.264 103.088 23.684 103.088 24.092C103.088 24.404 103.172 24.704 103.34 24.992C103.508 25.256 103.784 25.388 104.168 25.388C104.744 25.388 105.548 24.968 106.58 24.128C107.636 23.264 108.704 21.812 109.784 19.772L110.468 20.456C109.892 21.752 109.196 22.904 108.38 23.912C107.588 24.896 106.748 25.664 105.86 26.216C104.972 26.792 104.072 27.08 103.16 27.08C102.176 27.08 101.444 26.768 100.964 26.144C100.484 25.52 100.22 24.848 100.172 24.128C100.172 24.08 100.172 24.044 100.172 24.02C100.172 23.996 100.172 23.972 100.172 23.948C99.2115 25.1 98.3235 26.012 97.5075 26.684C96.7155 27.356 95.8635 27.692 94.9515 27.692ZM113.432 26.936C112.544 26.936 111.824 26.696 111.272 26.216C110.72 25.76 110.444 25.136 110.444 24.344C110.444 23.672 110.612 22.952 110.948 22.184C111.284 21.416 111.62 20.66 111.956 19.916C112.316 19.172 112.496 18.512 112.496 17.936C112.496 17.384 112.316 16.928 111.956 16.568C111.596 16.184 111.176 15.872 110.696 15.632C110.168 16.952 109.568 18.236 108.896 19.484C108.248 20.708 107.72 21.668 107.312 22.364L106.772 21.32C107.108 20.696 107.552 19.808 108.104 18.656C108.656 17.504 109.184 16.22 109.688 14.804C109.448 14.564 109.328 14.24 109.328 13.832C109.328 13.208 109.52 12.62 109.904 12.068C110.288 11.516 110.66 11.24 111.02 11.24C111.308 11.24 111.512 11.408 111.632 11.744C111.776 12.056 111.848 12.272 111.848 12.392C111.848 12.512 111.788 12.728 111.668 13.04C111.572 13.352 111.5 13.58 111.452 13.724C111.476 13.988 111.68 14.252 112.064 14.516C112.472 14.756 112.928 15.044 113.432 15.38C113.936 15.716 114.38 16.136 114.764 16.64C115.148 17.144 115.34 17.78 115.34 18.548C115.34 19.244 115.184 19.952 114.872 20.672C114.56 21.392 114.248 22.064 113.936 22.688C113.624 23.312 113.468 23.852 113.468 24.308C113.468 24.644 113.552 24.872 113.72 24.992C113.912 25.088 114.128 25.136 114.368 25.136C114.944 25.136 115.544 24.968 116.168 24.632C116.792 24.272 117.404 23.816 118.004 23.264C118.604 22.712 119.132 22.136 119.588 21.536C120.044 20.912 120.392 20.348 120.632 19.844L121.496 20.492C121.04 21.524 120.38 22.544 119.516 23.552C118.652 24.536 117.692 25.352 116.636 26C115.58 26.624 114.512 26.936 113.432 26.936ZM121.758 28.016C120.51 28.016 119.478 27.62 118.662 26.828C117.87 26.06 117.474 24.872 117.474 23.264C117.474 22.088 117.702 20.936 118.158 19.808C118.614 18.68 119.226 17.672 119.994 16.784C120.762 15.872 121.614 15.152 122.55 14.624C123.51 14.096 124.482 13.832 125.466 13.832C126.474 13.832 127.194 14.084 127.626 14.588C128.082 15.092 128.31 15.68 128.31 16.352C128.31 17.024 128.142 17.684 127.806 18.332C127.494 18.956 127.062 19.268 126.51 19.268C126.054 19.268 125.682 19.04 125.394 18.584C125.634 18.416 125.886 18.104 126.15 17.648C126.414 17.192 126.546 16.604 126.546 15.884C126.546 15.692 126.498 15.548 126.402 15.452C126.306 15.332 126.126 15.272 125.862 15.272C125.262 15.272 124.626 15.548 123.954 16.1C123.306 16.628 122.694 17.324 122.118 18.188C121.566 19.028 121.11 19.928 120.75 20.888C120.414 21.824 120.246 22.688 120.246 23.48C120.246 24.152 120.414 24.776 120.75 25.352C121.11 25.904 121.794 26.18 122.802 26.18C123.714 26.18 124.662 25.916 125.646 25.388C126.63 24.86 127.554 24.128 128.418 23.192C129.282 22.232 129.978 21.092 130.506 19.772L131.226 20.42C130.65 21.884 129.846 23.192 128.814 24.344C127.806 25.472 126.678 26.36 125.43 27.008C124.206 27.68 122.982 28.016 121.758 28.016ZM129.534 27.692C128.742 27.692 128.058 27.428 127.482 26.9C126.882 26.372 126.582 25.58 126.582 24.524C126.582 23.684 126.774 22.772 127.158 21.788C127.542 20.804 128.07 19.832 128.742 18.872C129.414 17.912 130.182 17.048 131.046 16.28C131.91 15.488 132.834 14.852 133.818 14.372C134.802 13.892 135.786 13.652 136.77 13.652C137.802 13.652 138.678 13.916 139.398 14.444C140.118 14.972 140.478 15.668 140.478 16.532C140.478 17.18 140.25 17.648 139.794 17.936C139.338 18.224 138.798 18.308 138.174 18.188C138.222 17.972 138.258 17.756 138.282 17.54C138.33 17.324 138.354 17.096 138.354 16.856C138.354 16.376 138.258 15.944 138.066 15.56C137.874 15.176 137.466 14.984 136.842 14.984C136.17 14.984 135.486 15.212 134.79 15.668C134.094 16.124 133.422 16.724 132.774 17.468C132.15 18.188 131.586 18.992 131.082 19.88C130.578 20.744 130.182 21.596 129.894 22.436C129.606 23.276 129.462 24.032 129.462 24.704C129.462 25.472 129.738 25.856 130.29 25.856C130.842 25.856 131.454 25.592 132.126 25.064C132.798 24.512 133.47 23.828 134.142 23.012C134.838 22.196 135.498 21.368 136.122 20.528C136.746 19.664 137.286 18.932 137.742 18.332C137.814 18.212 137.91 18.152 138.03 18.152C138.126 18.176 138.306 18.236 138.57 18.332C138.858 18.404 139.122 18.524 139.362 18.692C139.602 18.86 139.722 19.076 139.722 19.34C139.722 19.58 139.614 19.892 139.398 20.276C139.206 20.636 138.966 21.044 138.678 21.5C138.414 21.932 138.174 22.376 137.958 22.832C137.766 23.264 137.67 23.684 137.67 24.092C137.67 24.404 137.754 24.704 137.922 24.992C138.09 25.256 138.366 25.388 138.75 25.388C139.326 25.388 140.13 24.968 141.162 24.128C142.218 23.264 143.286 21.812 144.366 19.772L145.05 20.456C144.474 21.752 143.778 22.904 142.962 23.912C142.17 24.896 141.33 25.664 140.442 26.216C139.554 26.792 138.654 27.08 137.742 27.08C136.758 27.08 136.026 26.768 135.546 26.144C135.066 25.52 134.802 24.848 134.754 24.128C134.754 24.08 134.754 24.044 134.754 24.02C134.754 23.996 134.754 23.972 134.754 23.948C133.794 25.1 132.906 26.012 132.09 26.684C131.298 27.356 130.446 27.692 129.534 27.692ZM148.014 26.936C147.126 26.936 146.406 26.696 145.854 26.216C145.302 25.76 145.026 25.136 145.026 24.344C145.026 23.672 145.194 22.952 145.53 22.184C145.866 21.416 146.202 20.66 146.538 19.916C146.898 19.172 147.078 18.512 147.078 17.936C147.078 17.384 146.898 16.928 146.538 16.568C146.178 16.184 145.758 15.872 145.278 15.632C144.75 16.952 144.15 18.236 143.478 19.484C142.83 20.708 142.302 21.668 141.894 22.364L141.354 21.32C141.69 20.696 142.134 19.808 142.686 18.656C143.238 17.504 143.766 16.22 144.27 14.804C144.03 14.564 143.91 14.24 143.91 13.832C143.91 13.208 144.102 12.62 144.486 12.068C144.87 11.516 145.242 11.24 145.602 11.24C145.89 11.24 146.094 11.408 146.214 11.744C146.358 12.056 146.43 12.272 146.43 12.392C146.43 12.512 146.37 12.728 146.25 13.04C146.154 13.352 146.082 13.58 146.034 13.724C146.058 13.988 146.262 14.252 146.646 14.516C147.054 14.756 147.51 15.044 148.014 15.38C148.518 15.716 148.962 16.136 149.346 16.64C149.73 17.144 149.922 17.78 149.922 18.548C149.922 19.244 149.766 19.952 149.454 20.672C149.142 21.392 148.83 22.064 148.518 22.688C148.206 23.312 148.05 23.852 148.05 24.308C148.05 24.644 148.134 24.872 148.302 24.992C148.494 25.088 148.71 25.136 148.95 25.136C149.526 25.136 150.126 24.968 150.75 24.632C151.374 24.272 151.986 23.816 152.586 23.264C153.186 22.712 153.714 22.136 154.17 21.536C154.626 20.912 154.974 20.348 155.214 19.844L156.078 20.492C155.622 21.524 154.962 22.544 154.098 23.552C153.234 24.536 152.274 25.352 151.218 26C150.162 26.624 149.094 26.936 148.014 26.936ZM156.412 15.308C156.94 13.94 157.492 12.536 158.068 11.096C158.644 9.656 159.22 8.288 159.796 6.992C160.372 5.672 160.936 4.496 161.488 3.464C162.04 2.408 162.568 1.58 163.072 0.979998C163.6 0.379999 164.092 0.079999 164.548 0.079999C164.812 0.079999 165.04 0.187999 165.232 0.403999C165.448 0.595999 165.556 0.847999 165.556 1.16C165.556 1.496 165.352 2.156 164.944 3.14C164.56 4.124 164.044 5.3 163.396 6.668C162.748 8.036 162.028 9.488 161.236 11.024C160.444 12.56 159.652 14.072 158.86 15.56C158.068 17.024 157.324 18.344 156.628 19.52C155.932 20.696 155.356 21.608 154.9 22.256C154.828 22.232 154.756 22.208 154.684 22.184C154.612 22.16 154.54 22.136 154.468 22.112C154.492 21.488 154.6 20.78 154.792 19.988C155.008 19.196 155.26 18.392 155.548 17.576C155.86 16.736 156.148 15.98 156.412 15.308ZM153.712 26.36C153.328 26.36 152.992 26.264 152.704 26.072C152.416 25.88 152.272 25.568 152.272 25.136C152.272 24.68 152.512 24.284 152.992 23.948C153.496 23.612 154.036 23.444 154.612 23.444C154.972 23.444 155.26 23.528 155.476 23.696C155.716 23.864 155.836 24.152 155.836 24.56C155.836 24.968 155.62 25.376 155.188 25.784C154.756 26.168 154.264 26.36 153.712 26.36Z" fill="#F7ECE1"/>
</svg>
