<svg width="132" height="31" viewBox="0 0 132 31" fill="none" xmlns="http://www.w3.org/2000/svg">
<path d="M5.27381 29.132C4.43381 29.132 3.62981 29.012 2.86181 28.772C2.11781 28.556 1.46981 28.076 0.917812 27.332C0.989812 26.756 1.15781 25.916 1.42181 24.812C1.70981 23.708 2.05781 22.46 2.46581 21.068C2.87381 19.652 3.30581 18.2 3.76181 16.712C4.21781 15.224 4.66181 13.808 5.09381 12.464C5.54981 11.096 5.94581 9.908 6.28181 8.9C6.64181 7.868 6.90581 7.124 7.07381 6.668C7.14581 6.476 7.26581 6.188 7.43381 5.804C7.60181 5.42 7.81781 5.024 8.08181 4.616C8.34581 4.208 8.64581 3.872 8.98181 3.608C9.34181 3.32 9.72581 3.176 10.1338 3.176C10.5418 3.176 10.9978 3.344 11.5018 3.68C10.7578 5.36 10.0018 7.232 9.23381 9.296C8.48981 11.336 7.76981 13.448 7.07381 15.632C6.40181 17.792 5.77781 19.904 5.20181 21.968C4.64981 24.008 4.19381 25.88 3.83381 27.584C4.02581 27.656 4.28981 27.704 4.62581 27.728C4.98581 27.776 5.32181 27.8 5.63381 27.8C7.19381 27.8 8.68181 27.416 10.0978 26.648C11.5138 25.904 12.8098 24.908 13.9858 23.66C15.1858 22.388 16.2298 20.972 17.1178 19.412C18.0058 17.828 18.6898 16.208 19.1698 14.552C19.6498 12.896 19.8898 11.312 19.8898 9.8C19.8898 7.856 19.5538 6.284 18.8818 5.084C18.2338 3.86 17.3338 2.972 16.1818 2.42C15.0298 1.844 13.7098 1.556 12.2218 1.556C10.6618 1.556 9.25781 1.844 8.00981 2.42C6.76181 2.972 5.77781 3.74 5.05781 4.724C4.36181 5.684 4.01381 6.788 4.01381 8.036C4.01381 8.3 4.03781 8.588 4.08581 8.9C4.13381 9.188 4.21781 9.476 4.33781 9.764C3.30581 9.764 2.56181 9.548 2.10581 9.116C1.67381 8.66 1.45781 8.108 1.45781 7.46C1.45781 6.62 1.75781 5.768 2.35781 4.904C2.98181 4.04 3.83381 3.248 4.91381 2.528C6.01781 1.784 7.28981 1.196 8.72981 0.763999C10.1698 0.307999 11.7298 0.079999 13.4098 0.079999C15.7618 0.079999 17.6458 0.535999 19.0618 1.448C20.4778 2.336 21.4978 3.548 22.1218 5.084C22.7698 6.596 23.0938 8.288 23.0938 10.16C23.0938 12.224 22.7578 14.204 22.0858 16.1C21.4378 17.972 20.5258 19.7 19.3498 21.284C18.1978 22.868 16.8538 24.248 15.3178 25.424C13.8058 26.6 12.1858 27.512 10.4578 28.16C8.75381 28.808 7.02581 29.132 5.27381 29.132ZM25.1287 27.584C23.5927 27.584 22.4047 27.164 21.5647 26.324C20.7487 25.508 20.3407 24.476 20.3407 23.228C20.3407 22.172 20.6047 21.056 21.1327 19.88C21.6847 18.68 22.4167 17.564 23.3287 16.532C24.2407 15.476 25.2487 14.624 26.3527 13.976C27.4567 13.328 28.5607 13.004 29.6647 13.004C30.2887 13.004 30.8767 13.172 31.4287 13.508C32.0047 13.82 32.2927 14.456 32.2927 15.416C32.2927 16.328 32.0287 17.18 31.5007 17.972C30.9727 18.764 30.2647 19.472 29.3767 20.096C28.4887 20.72 27.5047 21.236 26.4247 21.644C25.3687 22.028 24.3007 22.28 23.2207 22.4C23.1967 22.496 23.1727 22.604 23.1487 22.724C23.1487 22.82 23.1487 22.988 23.1487 23.228C23.1487 23.348 23.1607 23.564 23.1847 23.876C23.2327 24.164 23.3407 24.476 23.5087 24.812C23.6767 25.148 23.9527 25.436 24.3367 25.676C24.7207 25.916 25.2487 26.036 25.9207 26.036C26.9287 26.036 27.9367 25.76 28.9447 25.208C29.9767 24.632 30.9367 23.876 31.8247 22.94C32.7367 22.004 33.4927 20.96 34.0927 19.808L34.8127 20.384C34.1647 21.824 33.3247 23.084 32.2927 24.164C31.2847 25.244 30.1567 26.084 28.9087 26.684C27.6847 27.284 26.4247 27.584 25.1287 27.584ZM23.6167 21.068C24.2407 20.996 24.9367 20.78 25.7047 20.42C26.4727 20.06 27.2047 19.604 27.9007 19.052C28.6207 18.5 29.2087 17.9 29.6647 17.252C30.1207 16.58 30.3487 15.908 30.3487 15.236C30.3487 14.972 30.3007 14.792 30.2047 14.696C30.1087 14.6 29.9527 14.552 29.7367 14.552C29.1847 14.552 28.6087 14.756 28.0087 15.164C27.4087 15.548 26.8207 16.064 26.2447 16.712C25.6687 17.336 25.1527 18.032 24.6967 18.8C24.2407 19.568 23.8807 20.324 23.6167 21.068ZM33.7982 27.08C32.9822 27.08 32.3102 26.708 31.7822 25.964C31.2782 25.196 31.0262 24.32 31.0262 23.336C31.0262 22.664 31.1342 21.872 31.3502 20.96C31.5662 20.048 31.8422 19.16 32.1782 18.296C32.5382 17.432 32.8982 16.712 33.2582 16.136C33.6422 15.56 33.9902 15.272 34.3022 15.272C34.4702 15.272 34.7222 15.368 35.0582 15.56C35.4182 15.728 35.7302 15.944 35.9942 16.208C35.7302 16.592 35.4062 17.18 35.0222 17.972C34.6622 18.764 34.3382 19.616 34.0502 20.528C33.7622 21.44 33.6182 22.268 33.6182 23.012C33.6182 23.108 33.6302 23.336 33.6542 23.696C33.7022 24.056 33.7982 24.392 33.9422 24.704C34.0862 25.016 34.3382 25.172 34.6982 25.172C35.1062 25.172 35.5382 24.956 35.9942 24.524C36.4742 24.068 36.9542 23.492 37.4342 22.796C37.9382 22.076 38.4182 21.308 38.8742 20.492C39.3542 19.676 39.7742 18.884 40.1342 18.116C40.5182 17.348 40.8302 16.7 41.0702 16.172C41.2862 16.196 41.5622 16.256 41.8982 16.352C42.2582 16.448 42.5702 16.58 42.8342 16.748C43.0982 16.892 43.2302 17.108 43.2302 17.396C43.2302 17.468 43.1102 17.768 42.8702 18.296C42.6542 18.8 42.3902 19.412 42.0782 20.132C41.7902 20.852 41.5262 21.596 41.2862 22.364C41.0702 23.108 40.9622 23.768 40.9622 24.344C40.9622 24.68 41.0222 24.98 41.1422 25.244C41.2862 25.484 41.5502 25.604 41.9342 25.604C42.4382 25.604 43.0382 25.376 43.7342 24.92C44.4302 24.464 45.1502 23.804 45.8942 22.94C46.6382 22.076 47.2982 21.044 47.8742 19.844L48.4142 20.276C47.8862 21.572 47.2022 22.736 46.3622 23.768C45.5222 24.8 44.6222 25.604 43.6622 26.18C42.7022 26.78 41.7662 27.08 40.8542 27.08C40.1582 27.08 39.6302 26.912 39.2702 26.576C38.9342 26.264 38.7062 25.856 38.5862 25.352C38.4662 24.824 38.3942 24.296 38.3702 23.768C38.3702 23.648 38.3702 23.528 38.3702 23.408C38.3702 23.264 38.3702 23.144 38.3702 23.048C37.9622 23.696 37.5182 24.332 37.0382 24.956C36.5582 25.556 36.0422 26.06 35.4902 26.468C34.9622 26.876 34.3982 27.08 33.7982 27.08ZM70.1644 30.356C69.5884 30.356 68.9284 30.044 68.1844 29.42C67.4404 28.796 66.6604 27.98 65.8444 26.972C65.0524 25.964 64.2604 24.86 63.4684 23.66C62.7004 22.436 61.9684 21.212 61.2724 19.988C60.5764 18.764 59.9884 17.66 59.5084 16.676C58.8604 18.884 58.2364 21.068 57.6364 23.228C57.0604 25.364 56.5084 27.344 55.9804 29.168C55.2844 29.168 54.6244 28.976 54.0004 28.592C53.4004 28.208 53.1004 27.704 53.1004 27.08C53.1004 26.816 53.1604 26.504 53.2804 26.144C53.4004 25.784 53.5084 25.436 53.6044 25.1C54.3004 23.012 54.9244 21.152 55.4764 19.52C56.0284 17.864 56.5444 16.352 57.0244 14.984C57.5284 13.592 58.0324 12.224 58.5364 10.88C59.0644 9.512 59.6404 8.084 60.2644 6.596C60.8884 5.108 61.6084 3.428 62.4244 1.556C61.4884 1.748 60.6604 2 59.9404 2.312C59.2444 2.624 58.6684 2.9 58.2124 3.14C57.7804 3.38 57.4804 3.5 57.3124 3.5C57.1924 3.5 57.0124 3.428 56.7724 3.284C56.5324 3.116 56.3164 2.924 56.1244 2.708C55.9564 2.468 55.8724 2.264 55.8724 2.096C56.5444 1.832 57.3244 1.544 58.2124 1.232C59.1244 0.919999 60.1204 0.655999 61.2004 0.439999C62.2804 0.199999 63.3964 0.079999 64.5484 0.079999C65.6284 0.079999 66.7444 0.211999 67.8964 0.475998C69.0484 0.715998 70.1164 1.112 71.1004 1.664C72.0844 2.216 72.8764 2.936 73.4764 3.824C74.0764 4.712 74.3764 5.78 74.3764 7.028C74.3764 8.156 74.1244 9.14 73.6204 9.98C73.1164 10.796 72.4444 11.492 71.6044 12.068C70.7644 12.644 69.8404 13.112 68.8324 13.472C67.8244 13.832 66.8044 14.12 65.7724 14.336C64.7404 14.528 63.7804 14.66 62.8924 14.732C62.0284 14.804 61.3084 14.852 60.7324 14.876C61.5004 16.1 62.2564 17.288 63.0004 18.44C63.7444 19.592 64.5364 20.744 65.3764 21.896C66.2404 23.024 67.2364 24.164 68.3644 25.316C69.4924 26.444 70.8244 27.596 72.3604 28.772C72.2644 29.252 71.9644 29.636 71.4604 29.924C70.9804 30.212 70.5484 30.356 70.1644 30.356ZM60.3364 13.796C61.6804 13.7 63.0004 13.484 64.2964 13.148C65.6164 12.812 66.8044 12.344 67.8604 11.744C68.9404 11.144 69.7924 10.4 70.4164 9.512C71.0644 8.6 71.3884 7.532 71.3884 6.308C71.3884 5.06 71.0764 4.088 70.4524 3.392C69.8284 2.672 69.0244 2.156 68.0404 1.844C67.0564 1.532 66.0244 1.364 64.9444 1.34C64.1284 2.948 63.3364 4.844 62.5684 7.028C61.8004 9.188 61.0564 11.444 60.3364 13.796ZM74.744 27.08C73.928 27.08 73.256 26.708 72.728 25.964C72.224 25.196 71.972 24.32 71.972 23.336C71.972 22.664 72.08 21.872 72.296 20.96C72.512 20.048 72.788 19.16 73.124 18.296C73.484 17.432 73.844 16.712 74.204 16.136C74.588 15.56 74.936 15.272 75.248 15.272C75.416 15.272 75.668 15.368 76.004 15.56C76.364 15.728 76.676 15.944 76.94 16.208C76.676 16.592 76.352 17.18 75.968 17.972C75.608 18.764 75.284 19.616 74.996 20.528C74.708 21.44 74.564 22.268 74.564 23.012C74.564 23.108 74.576 23.336 74.6 23.696C74.648 24.056 74.744 24.392 74.888 24.704C75.032 25.016 75.284 25.172 75.644 25.172C76.052 25.172 76.484 24.956 76.94 24.524C77.42 24.068 77.9 23.492 78.38 22.796C78.884 22.076 79.364 21.308 79.82 20.492C80.3 19.676 80.72 18.884 81.08 18.116C81.464 17.348 81.776 16.7 82.016 16.172C82.232 16.196 82.508 16.256 82.844 16.352C83.204 16.448 83.516 16.58 83.78 16.748C84.044 16.892 84.176 17.108 84.176 17.396C84.176 17.468 84.056 17.768 83.816 18.296C83.6 18.8 83.336 19.412 83.024 20.132C82.736 20.852 82.472 21.596 82.232 22.364C82.016 23.108 81.908 23.768 81.908 24.344C81.908 24.68 81.968 24.98 82.088 25.244C82.232 25.484 82.496 25.604 82.88 25.604C83.384 25.604 83.984 25.376 84.68 24.92C85.376 24.464 86.096 23.804 86.84 22.94C87.584 22.076 88.244 21.044 88.82 19.844L89.36 20.276C88.832 21.572 88.148 22.736 87.308 23.768C86.468 24.8 85.568 25.604 84.608 26.18C83.648 26.78 82.712 27.08 81.8 27.08C81.104 27.08 80.576 26.912 80.216 26.576C79.88 26.264 79.652 25.856 79.532 25.352C79.412 24.824 79.34 24.296 79.316 23.768C79.316 23.648 79.316 23.528 79.316 23.408C79.316 23.264 79.316 23.144 79.316 23.048C78.908 23.696 78.464 24.332 77.984 24.956C77.504 25.556 76.988 26.06 76.436 26.468C75.908 26.876 75.344 27.08 74.744 27.08ZM88.6186 27.08C87.5626 27.08 86.7706 26.768 86.2426 26.144C85.7146 25.52 85.4506 24.764 85.4506 23.876C85.4506 23.324 85.5466 22.628 85.7386 21.788C85.9306 20.948 86.1946 20.072 86.5306 19.16C86.8906 18.224 87.2986 17.348 87.7546 16.532C88.2106 15.716 88.7026 15.056 89.2306 14.552C89.7586 14.024 90.2866 13.76 90.8146 13.76C91.1026 13.76 91.3546 13.856 91.5706 14.048C91.7866 14.216 91.8946 14.468 91.8946 14.804C91.8946 15.116 91.7026 15.584 91.3186 16.208C90.9586 16.832 90.5266 17.552 90.0226 18.368C89.5426 19.184 89.1106 20.036 88.7266 20.924C88.3666 21.788 88.1866 22.616 88.1866 23.408C88.1866 24.176 88.3186 24.692 88.5826 24.956C88.8706 25.196 89.2786 25.316 89.8066 25.316C90.6226 25.316 91.5106 24.908 92.4706 24.092C93.4306 23.276 94.4266 21.848 95.4586 19.808L95.9986 20.384C95.1586 22.496 94.0906 24.14 92.7946 25.316C91.4986 26.492 90.1066 27.08 88.6186 27.08ZM92.8666 10.844C92.4106 10.844 91.9906 10.736 91.6066 10.52C91.2466 10.28 91.0666 9.92 91.0666 9.44C91.0666 8.864 91.3786 8.372 92.0026 7.964C92.6266 7.556 93.2746 7.352 93.9466 7.352C94.3786 7.352 94.7386 7.448 95.0266 7.64C95.3386 7.832 95.4946 8.18 95.4946 8.684C95.4946 9.188 95.2186 9.68 94.6666 10.16C94.1146 10.616 93.5146 10.844 92.8666 10.844ZM111.196 27.116C110.26 27.116 109.564 26.84 109.108 26.288C108.652 25.736 108.424 25.076 108.424 24.308C108.424 23.756 108.508 23.204 108.676 22.652C108.844 22.1 109.012 21.56 109.18 21.032C109.348 20.48 109.432 19.988 109.432 19.556C109.432 19.148 109.348 18.872 109.18 18.728C109.036 18.56 108.844 18.476 108.604 18.476C108.052 18.476 107.404 18.896 106.66 19.736C105.94 20.576 105.04 21.8 103.96 23.408C103.576 23.984 103.216 24.596 102.88 25.244C102.544 25.868 102.244 26.396 101.98 26.828C101.764 26.828 101.476 26.792 101.116 26.72C100.78 26.648 100.48 26.54 100.216 26.396C99.9517 26.276 99.8197 26.108 99.8197 25.892C99.8197 25.676 99.9397 25.256 100.18 24.632C100.42 24.008 100.696 23.288 101.008 22.472C101.32 21.632 101.596 20.816 101.836 20.024C102.076 19.208 102.196 18.524 102.196 17.972C102.196 17.636 102.136 17.372 102.016 17.18C101.896 16.988 101.704 16.892 101.44 16.892C100.936 16.892 100.324 17.192 99.6037 17.792C98.9077 18.392 98.1637 19.184 97.3717 20.168C96.6037 21.128 95.8717 22.208 95.1757 23.408C94.5037 24.584 93.9517 25.772 93.5197 26.972C93.2557 26.972 92.9317 26.912 92.5477 26.792C92.1637 26.696 91.8277 26.564 91.5397 26.396C91.2517 26.252 91.1077 26.12 91.1077 26C91.1077 25.976 91.1917 25.64 91.3597 24.992C91.5277 24.32 91.7317 23.492 91.9717 22.508C92.2117 21.524 92.4637 20.516 92.7277 19.484C92.9917 18.452 93.2197 17.552 93.4117 16.784C93.4837 16.52 93.7477 16.292 94.2037 16.1C94.6597 15.884 95.0557 15.776 95.3917 15.776C95.7277 15.776 96.0157 15.884 96.2557 16.1C96.4957 16.316 96.6157 16.604 96.6157 16.964C96.6157 17.204 96.5677 17.552 96.4717 18.008C96.3757 18.464 96.2557 18.98 96.1117 19.556C96.6157 18.884 97.1437 18.224 97.6957 17.576C98.2717 16.904 98.8597 16.304 99.4597 15.776C100.084 15.248 100.696 14.828 101.296 14.516C101.92 14.204 102.532 14.048 103.132 14.048C104.02 14.048 104.62 14.372 104.932 15.02C105.244 15.644 105.4 16.328 105.4 17.072C105.4 17.384 105.376 17.696 105.328 18.008C105.28 18.296 105.208 18.596 105.112 18.908C105.04 19.196 104.932 19.544 104.788 19.952C105.244 19.28 105.736 18.668 106.264 18.116C106.816 17.54 107.404 17.084 108.028 16.748C108.652 16.412 109.312 16.244 110.008 16.244C110.944 16.244 111.592 16.532 111.952 17.108C112.312 17.66 112.492 18.272 112.492 18.944C112.492 19.568 112.384 20.228 112.168 20.924C111.976 21.596 111.772 22.244 111.556 22.868C111.364 23.468 111.268 23.984 111.268 24.416C111.268 24.656 111.328 24.884 111.448 25.1C111.568 25.292 111.808 25.388 112.168 25.388C112.816 25.388 113.44 25.088 114.04 24.488C114.64 23.888 115.192 23.156 115.696 22.292C116.224 21.404 116.668 20.564 117.028 19.772L117.64 20.528C117.256 21.512 116.752 22.52 116.128 23.552C115.528 24.56 114.82 25.4 114.004 26.072C113.188 26.768 112.252 27.116 111.196 27.116ZM123.513 21.716C122.913 21.404 122.505 21.128 122.289 20.888C122.097 20.624 122.001 20.228 122.001 19.7C122.001 18.572 122.229 17.552 122.685 16.64C123.141 15.704 123.705 14.828 124.377 14.012C125.073 13.172 125.757 12.332 126.429 11.492C127.125 10.652 127.701 9.752 128.157 8.792C128.613 7.808 128.841 6.716 128.841 5.516C128.841 4.22 128.577 3.236 128.049 2.564C127.521 1.868 126.861 1.52 126.069 1.52C125.253 1.52 124.437 1.844 123.621 2.492C122.805 3.14 122.121 4.004 121.569 5.084C121.041 6.164 120.777 7.364 120.777 8.684C120.777 9.092 120.801 9.488 120.849 9.872C120.921 10.232 121.029 10.652 121.173 11.132C119.997 10.94 119.205 10.58 118.797 10.052C118.413 9.524 118.221 8.876 118.221 8.108C118.221 6.74 118.545 5.444 119.193 4.22C119.841 2.996 120.765 2 121.965 1.232C123.165 0.463999 124.569 0.079999 126.177 0.079999C127.809 0.079999 129.117 0.511999 130.101 1.376C131.085 2.216 131.577 3.44 131.577 5.048C131.577 6.104 131.385 7.052 131.001 7.892C130.617 8.708 130.125 9.476 129.525 10.196C128.949 10.892 128.325 11.6 127.653 12.32C127.005 13.016 126.393 13.784 125.817 14.624C125.265 15.44 124.821 16.388 124.485 17.468C124.245 18.284 124.089 19.004 124.017 19.628C123.969 20.228 123.801 20.924 123.513 21.716ZM121.965 26.36C121.581 26.36 121.245 26.252 120.957 26.036C120.669 25.844 120.525 25.556 120.525 25.172C120.525 24.692 120.777 24.284 121.281 23.948C121.809 23.612 122.337 23.444 122.865 23.444C123.225 23.444 123.525 23.528 123.765 23.696C124.005 23.864 124.125 24.128 124.125 24.488C124.125 24.944 123.897 25.376 123.441 25.784C123.009 26.168 122.517 26.36 121.965 26.36Z" fill="#242038"/>
</svg>
