<svg width="170" height="30" viewBox="0 0 170 30" fill="none" xmlns="http://www.w3.org/2000/svg">
<path d="M5.04469 29.132C3.58069 29.132 2.47669 28.892 1.73269 28.412C0.988691 27.932 0.604691 27.14 0.580691 26.036C0.580691 25.796 0.712691 25.676 0.976691 25.676C1.19269 25.676 1.51669 25.736 1.94869 25.856C2.40469 25.952 3.25669 26 4.50469 26C6.61669 26 8.56069 25.784 10.3367 25.352C12.1127 24.896 13.6487 24.296 14.9447 23.552C16.2647 22.784 17.2847 21.932 18.0047 20.996C18.7247 20.036 19.0847 19.04 19.0847 18.008C19.0847 17.072 18.7967 16.328 18.2207 15.776C17.6687 15.2 16.9247 14.768 15.9887 14.48C15.0767 14.168 14.0687 13.964 12.9647 13.868C11.8847 13.772 10.8167 13.724 9.76069 13.724C9.30469 13.724 8.84869 13.736 8.39269 13.76C7.93669 13.76 7.50469 13.76 7.09669 13.76C6.56869 15.584 6.05269 17.468 5.54869 19.412C5.04469 21.356 4.51669 23.264 3.96469 25.136C3.24469 25.136 2.62069 24.944 2.09269 24.56C1.56469 24.176 1.30069 23.708 1.30069 23.156C1.30069 22.94 1.33669 22.664 1.40869 22.328C1.50469 21.968 1.63669 21.548 1.80469 21.068C1.94869 20.612 2.18869 19.856 2.52469 18.8C2.88469 17.744 3.30469 16.496 3.78469 15.056C4.26469 13.616 4.79269 12.104 5.36869 10.52C5.96869 8.912 6.58069 7.34 7.20469 5.804C7.85269 4.268 8.48869 2.888 9.11269 1.664C8.15269 1.88 7.36069 2.132 6.73669 2.42C6.11269 2.708 5.62069 2.96 5.26069 3.176C4.90069 3.392 4.62469 3.5 4.43269 3.5C4.28869 3.5 4.09669 3.416 3.85669 3.248C3.64069 3.08 3.43669 2.888 3.24469 2.672C3.07669 2.456 2.99269 2.264 2.99269 2.096C4.28869 1.568 5.63269 1.1 7.02469 0.692C8.41669 0.283999 10.0967 0.079999 12.0647 0.079999C12.9287 0.079999 13.8767 0.151999 14.9087 0.295998C15.9407 0.415998 16.9247 0.679998 17.8607 1.088C18.7967 1.472 19.5647 2.06 20.1647 2.852C20.7887 3.62 21.1007 4.652 21.1007 5.948C21.1007 6.98 20.8727 7.88 20.4167 8.648C19.9847 9.392 19.3967 10.04 18.6527 10.592C17.9087 11.12 17.0927 11.564 16.2047 11.924C15.3167 12.26 14.4407 12.536 13.5767 12.752C15.0647 12.944 16.3007 13.256 17.2847 13.688C18.2927 14.096 19.0847 14.576 19.6607 15.128C20.2607 15.68 20.6807 16.256 20.9207 16.856C21.1847 17.432 21.3167 17.996 21.3167 18.548C21.3167 19.964 20.9447 21.236 20.2007 22.364C19.4567 23.492 18.4727 24.476 17.2487 25.316C16.0487 26.156 14.7167 26.852 13.2527 27.404C11.8127 27.98 10.3727 28.412 8.93269 28.7C7.49269 28.988 6.19669 29.132 5.04469 29.132ZM7.45669 12.392C8.80069 12.344 10.1207 12.188 11.4167 11.924C12.7127 11.66 13.8767 11.276 14.9087 10.772C15.9647 10.244 16.8047 9.572 17.4287 8.756C18.0527 7.916 18.3647 6.884 18.3647 5.66C18.3647 4.508 18.0527 3.62 17.4287 2.996C16.8047 2.372 15.9887 1.94 14.9807 1.7C13.9727 1.46 12.8927 1.34 11.7407 1.34C11.7167 1.34 11.6927 1.34 11.6687 1.34C11.6447 1.34 11.6207 1.34 11.5967 1.34C10.7807 2.948 10.0367 4.7 9.36469 6.596C8.69269 8.468 8.05669 10.4 7.45669 12.392ZM23.2028 27.152C22.0988 27.152 21.2828 26.816 20.7548 26.144C20.2268 25.496 19.9628 24.692 19.9628 23.732C19.9628 22.484 20.1788 21.32 20.6108 20.24C21.0668 19.16 21.6308 18.188 22.3028 17.324C22.9988 16.436 23.7428 15.68 24.5348 15.056C25.3268 14.432 26.0708 13.952 26.7668 13.616C27.4868 13.28 28.0748 13.112 28.5308 13.112C28.6508 13.112 28.8188 13.136 29.0348 13.184C29.2508 13.232 29.4068 13.352 29.5028 13.544C29.5748 13.496 29.6468 13.46 29.7188 13.436C29.8148 13.412 29.9108 13.4 30.0068 13.4C30.6788 13.4 31.1108 13.592 31.3028 13.976C31.5188 14.36 31.6268 14.78 31.6268 15.236C31.6268 15.644 31.5068 16.112 31.2668 16.64C31.0508 17.168 30.8228 17.756 30.5828 18.404C30.3668 19.028 30.2588 19.748 30.2588 20.564C30.2588 20.996 30.3788 21.332 30.6188 21.572C30.8828 21.788 31.1828 21.896 31.5188 21.896C32.4548 21.896 33.2228 21.692 33.8228 21.284C34.4228 20.852 34.9148 20.288 35.2988 19.592C35.6828 18.896 36.0068 18.14 36.2708 17.324C36.5348 16.484 36.7868 15.656 37.0268 14.84C36.8108 14.576 36.7028 14.276 36.7028 13.94C36.7028 13.412 36.8108 12.956 37.0268 12.572C37.2428 12.164 37.4828 11.852 37.7468 11.636C38.0348 11.396 38.2628 11.276 38.4308 11.276C38.8148 11.276 39.0428 11.42 39.1148 11.708C39.1868 11.996 39.2228 12.224 39.2228 12.392C39.2228 12.512 39.1508 12.728 39.0068 13.04C38.8868 13.352 38.8268 13.568 38.8268 13.688C38.8268 13.928 39.0188 14.18 39.4028 14.444C39.8108 14.684 40.2668 14.972 40.7708 15.308C41.2748 15.644 41.7188 16.076 42.1028 16.604C42.5108 17.108 42.7148 17.744 42.7148 18.512C42.7148 19.232 42.5708 19.952 42.2828 20.672C41.9948 21.392 41.7068 22.064 41.4188 22.688C41.1308 23.312 40.9868 23.852 40.9868 24.308C40.9868 24.668 41.0708 24.908 41.2388 25.028C41.4308 25.124 41.6468 25.172 41.8868 25.172C42.4388 25.172 43.0148 25.004 43.6148 24.668C44.2388 24.308 44.8388 23.852 45.4148 23.3C45.9908 22.748 46.5068 22.172 46.9628 21.572C47.4188 20.948 47.7548 20.384 47.9708 19.88L48.6908 20.384C48.2108 21.416 47.5748 22.436 46.7828 23.444C45.9908 24.452 45.0908 25.292 44.0828 25.964C43.0988 26.636 42.0668 26.972 40.9868 26.972C40.0988 26.972 39.3668 26.732 38.7908 26.252C38.2388 25.772 37.9628 25.16 37.9628 24.416C37.9628 23.72 38.1188 22.988 38.4308 22.22C38.7428 21.452 39.0548 20.708 39.3668 19.988C39.6788 19.268 39.8348 18.62 39.8348 18.044C39.8348 17.42 39.6308 16.916 39.2228 16.532C38.8148 16.124 38.3828 15.8 37.9268 15.56C37.6388 16.424 37.3148 17.312 36.9548 18.224C36.6188 19.136 36.1988 19.976 35.6948 20.744C35.1908 21.488 34.5548 22.1 33.7868 22.58C33.0188 23.036 32.0588 23.264 30.9068 23.264C30.5948 23.264 30.2348 23.216 29.8268 23.12C29.4428 23.024 29.1188 22.928 28.8548 22.832C28.2068 24.104 27.3548 25.148 26.2988 25.964C25.2668 26.756 24.2348 27.152 23.2028 27.152ZM23.8868 25.352C24.1988 25.352 24.5828 25.196 25.0388 24.884C25.5188 24.572 25.9868 24.164 26.4428 23.66C26.9228 23.132 27.2948 22.58 27.5588 22.004C27.0548 21.332 26.8028 20.324 26.8028 18.98C26.8028 18.692 26.8388 18.308 26.9108 17.828C27.0068 17.348 27.1268 16.856 27.2708 16.352C27.4388 15.824 27.6308 15.38 27.8468 15.02C27.3668 15.476 26.8748 15.992 26.3708 16.568C25.8908 17.12 25.4348 17.708 25.0028 18.332C24.5708 18.932 24.1868 19.544 23.8508 20.168C23.5148 20.768 23.2508 21.368 23.0588 21.968C22.8668 22.544 22.7708 23.096 22.7708 23.624C22.7708 24.272 22.8668 24.728 23.0588 24.992C23.2748 25.232 23.5508 25.352 23.8868 25.352ZM47.0741 27.692C46.2821 27.692 45.5981 27.428 45.0221 26.9C44.4221 26.372 44.1221 25.58 44.1221 24.524C44.1221 23.684 44.3141 22.772 44.6981 21.788C45.0821 20.804 45.6101 19.832 46.2821 18.872C46.9541 17.912 47.7221 17.048 48.5861 16.28C49.4501 15.488 50.3741 14.852 51.3581 14.372C52.3421 13.892 53.3261 13.652 54.3101 13.652C55.3421 13.652 56.2181 13.916 56.9381 14.444C57.6581 14.972 58.0181 15.668 58.0181 16.532C58.0181 17.18 57.7901 17.648 57.3341 17.936C56.8781 18.224 56.3381 18.308 55.7141 18.188C55.7621 17.972 55.7981 17.756 55.8221 17.54C55.8701 17.324 55.8941 17.096 55.8941 16.856C55.8941 16.376 55.7981 15.944 55.6061 15.56C55.4141 15.176 55.0061 14.984 54.3821 14.984C53.7101 14.984 53.0261 15.212 52.3301 15.668C51.6341 16.124 50.9621 16.724 50.3141 17.468C49.6901 18.188 49.1261 18.992 48.6221 19.88C48.1181 20.744 47.7221 21.596 47.4341 22.436C47.1461 23.276 47.0021 24.032 47.0021 24.704C47.0021 25.472 47.2781 25.856 47.8301 25.856C48.3821 25.856 48.9941 25.592 49.6661 25.064C50.3381 24.512 51.0101 23.828 51.6821 23.012C52.3781 22.196 53.0381 21.368 53.6621 20.528C54.2861 19.664 54.8261 18.932 55.2821 18.332C55.3541 18.212 55.4501 18.152 55.5701 18.152C55.6661 18.176 55.8461 18.236 56.1101 18.332C56.3981 18.404 56.6621 18.524 56.9021 18.692C57.1421 18.86 57.2621 19.076 57.2621 19.34C57.2621 19.58 57.1541 19.892 56.9381 20.276C56.7461 20.636 56.5061 21.044 56.2181 21.5C55.9541 21.932 55.7141 22.376 55.4981 22.832C55.3061 23.264 55.2101 23.684 55.2101 24.092C55.2101 24.404 55.2941 24.704 55.4621 24.992C55.6301 25.256 55.9061 25.388 56.2901 25.388C56.8661 25.388 57.6701 24.968 58.7021 24.128C59.7581 23.264 60.8261 21.812 61.9061 19.772L62.5901 20.456C62.0141 21.752 61.3181 22.904 60.5021 23.912C59.7101 24.896 58.8701 25.664 57.9821 26.216C57.0941 26.792 56.1941 27.08 55.2821 27.08C54.2981 27.08 53.5661 26.768 53.0861 26.144C52.6061 25.52 52.3421 24.848 52.2941 24.128C52.2941 24.08 52.2941 24.044 52.2941 24.02C52.2941 23.996 52.2941 23.972 52.2941 23.948C51.3341 25.1 50.4461 26.012 49.6301 26.684C48.8381 27.356 47.9861 27.692 47.0741 27.692ZM65.9058 29.132C66.0258 28.772 66.3738 27.944 66.9498 26.648C67.5498 25.376 68.3418 23.672 69.3258 21.536C70.3338 19.376 71.5218 16.82 72.8898 13.868C74.2578 10.916 75.7818 7.592 77.4618 3.896C77.5578 3.704 77.6298 3.5 77.6778 3.284C77.7498 3.068 77.7858 2.876 77.7858 2.708C77.7858 2.468 77.7138 2.276 77.5698 2.132C77.4258 1.988 77.1498 1.916 76.7418 1.916C75.7338 1.916 74.9058 2.228 74.2578 2.852C73.6338 3.452 73.1658 4.196 72.8538 5.084C72.5658 5.972 72.4218 6.848 72.4218 7.712C72.4218 7.928 72.4338 8.18 72.4578 8.468C72.4818 8.756 72.5178 9.08 72.5658 9.44C71.9898 9.44 71.5098 9.272 71.1258 8.936C70.7658 8.576 70.4898 8.144 70.2978 7.64C70.1058 7.112 70.0098 6.62 70.0098 6.164C70.0098 5.396 70.2258 4.652 70.6578 3.932C71.1138 3.212 71.7018 2.564 72.4218 1.988C73.1418 1.388 73.9338 0.919999 74.7978 0.583999C75.6858 0.247999 76.5618 0.079999 77.4258 0.079999C78.3138 0.079999 79.0698 0.331999 79.6938 0.835998C80.3178 1.316 80.7978 2.204 81.1338 3.5C81.4698 4.772 81.6378 6.608 81.6378 9.008C81.6378 10.568 81.5778 12.152 81.4578 13.76C81.3618 15.344 81.2538 16.832 81.1338 18.224C81.0138 19.616 80.9538 20.804 80.9538 21.788C81.4338 20.372 82.0218 18.872 82.7178 17.288C83.4378 15.68 84.2058 14.096 85.0218 12.536C85.8378 10.952 86.6418 9.464 87.4338 8.072C88.2258 6.68 88.9338 5.468 89.5578 4.436C90.2058 3.38 90.6978 2.6 91.0338 2.096C91.3698 1.568 91.6698 1.172 91.9338 0.907999C92.1978 0.644 92.5578 0.512 93.0138 0.512C93.3498 0.512 93.8778 0.644 94.5978 0.907999C94.3818 1.364 94.1298 2.096 93.8418 3.104C93.5538 4.088 93.2418 5.24 92.9058 6.56C92.5458 8 92.1858 9.584 91.8258 11.312C91.4658 13.016 91.1418 14.744 90.8538 16.496C90.5658 18.248 90.3258 19.916 90.1338 21.5C89.9658 23.06 89.8818 24.44 89.8818 25.64C89.8818 26.264 89.9058 26.756 89.9538 27.116C90.0258 27.476 90.1098 27.788 90.2058 28.052C90.3258 28.34 90.4578 28.7 90.6018 29.132C89.5698 29.132 88.7778 28.976 88.2258 28.664C87.6978 28.352 87.3378 27.848 87.1458 27.152C86.9778 26.48 86.8938 25.58 86.8938 24.452C86.8938 21.788 87.1938 18.992 87.7938 16.064C88.4178 13.112 89.1378 10.076 89.9538 6.956C89.2818 7.916 88.5858 9.056 87.8658 10.376C87.1458 11.696 86.4378 13.088 85.7418 14.552C85.0458 16.016 84.3858 17.468 83.7618 18.908C83.1378 20.324 82.5858 21.644 82.1058 22.868C81.6258 24.068 81.2538 25.076 80.9898 25.892C80.7738 25.964 80.6178 26.012 80.5218 26.036C80.4498 26.06 80.3538 26.072 80.2338 26.072C79.3938 26.072 78.8538 25.568 78.6138 24.56C78.3978 23.528 78.2898 22.124 78.2898 20.348C78.2898 19.412 78.3018 18.416 78.3258 17.36C78.3498 16.28 78.3858 15.188 78.4338 14.084C78.4818 12.956 78.5178 11.84 78.5418 10.736C78.5658 9.632 78.5778 8.576 78.5778 7.568C78.5778 7.208 78.5658 6.848 78.5418 6.488C78.5418 6.128 78.5418 5.78 78.5418 5.444C76.7178 9.692 75.1698 13.328 73.8978 16.352C72.6498 19.352 71.5818 21.8 70.6938 23.696C69.8058 25.568 68.9898 26.936 68.2458 27.8C67.5018 28.688 66.7218 29.132 65.9058 29.132ZM94.9457 27.692C94.1537 27.692 93.4697 27.428 92.8937 26.9C92.2937 26.372 91.9937 25.58 91.9937 24.524C91.9937 23.684 92.1857 22.772 92.5697 21.788C92.9537 20.804 93.4817 19.832 94.1537 18.872C94.8257 17.912 95.5937 17.048 96.4577 16.28C97.3217 15.488 98.2457 14.852 99.2297 14.372C100.214 13.892 101.198 13.652 102.182 13.652C103.214 13.652 104.09 13.916 104.81 14.444C105.53 14.972 105.89 15.668 105.89 16.532C105.89 17.18 105.662 17.648 105.206 17.936C104.75 18.224 104.21 18.308 103.586 18.188C103.634 17.972 103.67 17.756 103.694 17.54C103.742 17.324 103.766 17.096 103.766 16.856C103.766 16.376 103.67 15.944 103.478 15.56C103.286 15.176 102.878 14.984 102.254 14.984C101.582 14.984 100.898 15.212 100.202 15.668C99.5057 16.124 98.8337 16.724 98.1857 17.468C97.5617 18.188 96.9977 18.992 96.4937 19.88C95.9897 20.744 95.5937 21.596 95.3057 22.436C95.0177 23.276 94.8737 24.032 94.8737 24.704C94.8737 25.472 95.1497 25.856 95.7017 25.856C96.2537 25.856 96.8657 25.592 97.5377 25.064C98.2097 24.512 98.8817 23.828 99.5537 23.012C100.25 22.196 100.91 21.368 101.534 20.528C102.158 19.664 102.698 18.932 103.154 18.332C103.226 18.212 103.322 18.152 103.442 18.152C103.538 18.176 103.718 18.236 103.982 18.332C104.27 18.404 104.534 18.524 104.774 18.692C105.014 18.86 105.134 19.076 105.134 19.34C105.134 19.58 105.026 19.892 104.81 20.276C104.618 20.636 104.378 21.044 104.09 21.5C103.826 21.932 103.586 22.376 103.37 22.832C103.178 23.264 103.082 23.684 103.082 24.092C103.082 24.404 103.166 24.704 103.334 24.992C103.502 25.256 103.778 25.388 104.162 25.388C104.738 25.388 105.542 24.968 106.574 24.128C107.63 23.264 108.698 21.812 109.778 19.772L110.462 20.456C109.886 21.752 109.19 22.904 108.374 23.912C107.582 24.896 106.742 25.664 105.854 26.216C104.966 26.792 104.066 27.08 103.154 27.08C102.17 27.08 101.438 26.768 100.958 26.144C100.478 25.52 100.214 24.848 100.166 24.128C100.166 24.08 100.166 24.044 100.166 24.02C100.166 23.996 100.166 23.972 100.166 23.948C99.2057 25.1 98.3177 26.012 97.5017 26.684C96.7097 27.356 95.8577 27.692 94.9457 27.692ZM113.426 26.936C112.538 26.936 111.818 26.696 111.266 26.216C110.714 25.76 110.438 25.136 110.438 24.344C110.438 23.672 110.606 22.952 110.942 22.184C111.278 21.416 111.614 20.66 111.95 19.916C112.31 19.172 112.49 18.512 112.49 17.936C112.49 17.384 112.31 16.928 111.95 16.568C111.59 16.184 111.17 15.872 110.69 15.632C110.162 16.952 109.562 18.236 108.89 19.484C108.242 20.708 107.714 21.668 107.306 22.364L106.766 21.32C107.102 20.696 107.546 19.808 108.098 18.656C108.65 17.504 109.178 16.22 109.682 14.804C109.442 14.564 109.322 14.24 109.322 13.832C109.322 13.208 109.514 12.62 109.898 12.068C110.282 11.516 110.654 11.24 111.014 11.24C111.302 11.24 111.506 11.408 111.626 11.744C111.77 12.056 111.842 12.272 111.842 12.392C111.842 12.512 111.782 12.728 111.662 13.04C111.566 13.352 111.494 13.58 111.446 13.724C111.47 13.988 111.674 14.252 112.058 14.516C112.466 14.756 112.922 15.044 113.426 15.38C113.93 15.716 114.374 16.136 114.758 16.64C115.142 17.144 115.334 17.78 115.334 18.548C115.334 19.244 115.178 19.952 114.866 20.672C114.554 21.392 114.242 22.064 113.93 22.688C113.618 23.312 113.462 23.852 113.462 24.308C113.462 24.644 113.546 24.872 113.714 24.992C113.906 25.088 114.122 25.136 114.362 25.136C114.938 25.136 115.538 24.968 116.162 24.632C116.786 24.272 117.398 23.816 117.998 23.264C118.598 22.712 119.126 22.136 119.582 21.536C120.038 20.912 120.386 20.348 120.626 19.844L121.49 20.492C121.034 21.524 120.374 22.544 119.51 23.552C118.646 24.536 117.686 25.352 116.63 26C115.574 26.624 114.506 26.936 113.426 26.936ZM121.752 28.016C120.504 28.016 119.472 27.62 118.656 26.828C117.864 26.06 117.468 24.872 117.468 23.264C117.468 22.088 117.696 20.936 118.152 19.808C118.608 18.68 119.22 17.672 119.988 16.784C120.756 15.872 121.608 15.152 122.544 14.624C123.504 14.096 124.476 13.832 125.46 13.832C126.468 13.832 127.188 14.084 127.62 14.588C128.076 15.092 128.304 15.68 128.304 16.352C128.304 17.024 128.136 17.684 127.8 18.332C127.488 18.956 127.056 19.268 126.504 19.268C126.048 19.268 125.676 19.04 125.388 18.584C125.628 18.416 125.88 18.104 126.144 17.648C126.408 17.192 126.54 16.604 126.54 15.884C126.54 15.692 126.492 15.548 126.396 15.452C126.3 15.332 126.12 15.272 125.856 15.272C125.256 15.272 124.62 15.548 123.948 16.1C123.3 16.628 122.688 17.324 122.112 18.188C121.56 19.028 121.104 19.928 120.744 20.888C120.408 21.824 120.24 22.688 120.24 23.48C120.24 24.152 120.408 24.776 120.744 25.352C121.104 25.904 121.788 26.18 122.796 26.18C123.708 26.18 124.656 25.916 125.64 25.388C126.624 24.86 127.548 24.128 128.412 23.192C129.276 22.232 129.972 21.092 130.5 19.772L131.22 20.42C130.644 21.884 129.84 23.192 128.808 24.344C127.8 25.472 126.672 26.36 125.424 27.008C124.2 27.68 122.976 28.016 121.752 28.016ZM129.528 27.692C128.736 27.692 128.052 27.428 127.476 26.9C126.876 26.372 126.576 25.58 126.576 24.524C126.576 23.684 126.768 22.772 127.152 21.788C127.536 20.804 128.064 19.832 128.736 18.872C129.408 17.912 130.176 17.048 131.04 16.28C131.904 15.488 132.828 14.852 133.812 14.372C134.796 13.892 135.78 13.652 136.764 13.652C137.796 13.652 138.672 13.916 139.392 14.444C140.112 14.972 140.472 15.668 140.472 16.532C140.472 17.18 140.244 17.648 139.788 17.936C139.332 18.224 138.792 18.308 138.168 18.188C138.216 17.972 138.252 17.756 138.276 17.54C138.324 17.324 138.348 17.096 138.348 16.856C138.348 16.376 138.252 15.944 138.06 15.56C137.868 15.176 137.46 14.984 136.836 14.984C136.164 14.984 135.48 15.212 134.784 15.668C134.088 16.124 133.416 16.724 132.768 17.468C132.144 18.188 131.58 18.992 131.076 19.88C130.572 20.744 130.176 21.596 129.888 22.436C129.6 23.276 129.456 24.032 129.456 24.704C129.456 25.472 129.732 25.856 130.284 25.856C130.836 25.856 131.448 25.592 132.12 25.064C132.792 24.512 133.464 23.828 134.136 23.012C134.832 22.196 135.492 21.368 136.116 20.528C136.74 19.664 137.28 18.932 137.736 18.332C137.808 18.212 137.904 18.152 138.024 18.152C138.12 18.176 138.3 18.236 138.564 18.332C138.852 18.404 139.116 18.524 139.356 18.692C139.596 18.86 139.716 19.076 139.716 19.34C139.716 19.58 139.608 19.892 139.392 20.276C139.2 20.636 138.96 21.044 138.672 21.5C138.408 21.932 138.168 22.376 137.952 22.832C137.76 23.264 137.664 23.684 137.664 24.092C137.664 24.404 137.748 24.704 137.916 24.992C138.084 25.256 138.36 25.388 138.744 25.388C139.32 25.388 140.124 24.968 141.156 24.128C142.212 23.264 143.28 21.812 144.36 19.772L145.044 20.456C144.468 21.752 143.772 22.904 142.956 23.912C142.164 24.896 141.324 25.664 140.436 26.216C139.548 26.792 138.648 27.08 137.736 27.08C136.752 27.08 136.02 26.768 135.54 26.144C135.06 25.52 134.796 24.848 134.748 24.128C134.748 24.08 134.748 24.044 134.748 24.02C134.748 23.996 134.748 23.972 134.748 23.948C133.788 25.1 132.9 26.012 132.084 26.684C131.292 27.356 130.44 27.692 129.528 27.692ZM148.008 26.936C147.12 26.936 146.4 26.696 145.848 26.216C145.296 25.76 145.02 25.136 145.02 24.344C145.02 23.672 145.188 22.952 145.524 22.184C145.86 21.416 146.196 20.66 146.532 19.916C146.892 19.172 147.072 18.512 147.072 17.936C147.072 17.384 146.892 16.928 146.532 16.568C146.172 16.184 145.752 15.872 145.272 15.632C144.744 16.952 144.144 18.236 143.472 19.484C142.824 20.708 142.296 21.668 141.888 22.364L141.348 21.32C141.684 20.696 142.128 19.808 142.68 18.656C143.232 17.504 143.76 16.22 144.264 14.804C144.024 14.564 143.904 14.24 143.904 13.832C143.904 13.208 144.096 12.62 144.48 12.068C144.864 11.516 145.236 11.24 145.596 11.24C145.884 11.24 146.088 11.408 146.208 11.744C146.352 12.056 146.424 12.272 146.424 12.392C146.424 12.512 146.364 12.728 146.244 13.04C146.148 13.352 146.076 13.58 146.028 13.724C146.052 13.988 146.256 14.252 146.64 14.516C147.048 14.756 147.504 15.044 148.008 15.38C148.512 15.716 148.956 16.136 149.34 16.64C149.724 17.144 149.916 17.78 149.916 18.548C149.916 19.244 149.76 19.952 149.448 20.672C149.136 21.392 148.824 22.064 148.512 22.688C148.2 23.312 148.044 23.852 148.044 24.308C148.044 24.644 148.128 24.872 148.296 24.992C148.488 25.088 148.704 25.136 148.944 25.136C149.52 25.136 150.12 24.968 150.744 24.632C151.368 24.272 151.98 23.816 152.58 23.264C153.18 22.712 153.708 22.136 154.164 21.536C154.62 20.912 154.968 20.348 155.208 19.844L156.072 20.492C155.616 21.524 154.956 22.544 154.092 23.552C153.228 24.536 152.268 25.352 151.212 26C150.156 26.624 149.088 26.936 148.008 26.936ZM161.806 21.716C161.206 21.404 160.798 21.128 160.582 20.888C160.39 20.624 160.294 20.228 160.294 19.7C160.294 18.572 160.522 17.552 160.978 16.64C161.434 15.704 161.998 14.828 162.67 14.012C163.366 13.172 164.05 12.332 164.722 11.492C165.418 10.652 165.994 9.752 166.45 8.792C166.906 7.808 167.134 6.716 167.134 5.516C167.134 4.22 166.87 3.236 166.342 2.564C165.814 1.868 165.154 1.52 164.362 1.52C163.546 1.52 162.73 1.844 161.914 2.492C161.098 3.14 160.414 4.004 159.862 5.084C159.334 6.164 159.07 7.364 159.07 8.684C159.07 9.092 159.094 9.488 159.142 9.872C159.214 10.232 159.322 10.652 159.466 11.132C158.29 10.94 157.498 10.58 157.09 10.052C156.706 9.524 156.514 8.876 156.514 8.108C156.514 6.74 156.838 5.444 157.486 4.22C158.134 2.996 159.058 2 160.258 1.232C161.458 0.463999 162.862 0.079999 164.47 0.079999C166.102 0.079999 167.41 0.511999 168.394 1.376C169.378 2.216 169.87 3.44 169.87 5.048C169.87 6.104 169.678 7.052 169.294 7.892C168.91 8.708 168.418 9.476 167.818 10.196C167.242 10.892 166.618 11.6 165.946 12.32C165.298 13.016 164.686 13.784 164.11 14.624C163.558 15.44 163.114 16.388 162.778 17.468C162.538 18.284 162.382 19.004 162.31 19.628C162.262 20.228 162.094 20.924 161.806 21.716ZM160.258 26.36C159.874 26.36 159.538 26.252 159.25 26.036C158.962 25.844 158.818 25.556 158.818 25.172C158.818 24.692 159.07 24.284 159.574 23.948C160.102 23.612 160.63 23.444 161.158 23.444C161.518 23.444 161.818 23.528 162.058 23.696C162.298 23.864 162.418 24.128 162.418 24.488C162.418 24.944 162.19 25.376 161.734 25.784C161.302 26.168 160.81 26.36 160.258 26.36Z" fill="#F7ECE1"/>
</svg>
